<svg xmlns="http://www.w3.org/2000/svg" xmlns:xlink="http://www.w3.org/1999/xlink" width="44" zoomAndPan="magnify" viewBox="0 0 33 32.999998" height="44" preserveAspectRatio="xMidYMid meet" version="1.0"><defs><clipPath id="025a99b975"><path d="M 0.828125 3.914062 L 32.328125 3.914062 L 32.328125 29.414062 L 0.828125 29.414062 Z M 0.828125 3.914062 " clip-rule="nonzero"/></clipPath></defs><g clip-path="url(#025a99b975)"><path fill="#5a4fdc" d="M 8.121094 29.414062 L 23.003906 29.414062 L 26.828125 22.585938 L 12.308594 22.585938 L 11 20.3125 L 32.324219 20.3125 L 28.046875 13.113281 L 13.925781 13.113281 L 12.6875 10.871094 L 26.84375 10.886719 L 22.988281 3.914062 L 8.417969 3.914062 L 4.542969 10.515625 L 6.09375 13.113281 L 3.113281 13.113281 L 0.828125 16.722656 Z M 12.984375 13.113281 L 7.058594 13.113281 L 5.503906 10.511719 L 8.886719 4.75 L 22.503906 4.75 L 25.4375 10.058594 L 11.285156 10.042969 Z M 30.875 19.496094 L 3.332031 19.496094 L 1.804688 16.710938 L 3.5625 13.925781 L 27.578125 13.925781 Z M 3.808594 20.3125 L 10.042969 20.3125 L 11.835938 23.398438 L 25.421875 23.398438 L 22.519531 28.601562 L 8.605469 28.601562 Z M 3.808594 20.3125 " fill-opacity="1" fill-rule="nonzero"/></g></svg>