<svg xmlns="http://www.w3.org/2000/svg" xmlns:xlink="http://www.w3.org/1999/xlink" width="127" zoomAndPan="magnify" viewBox="0 0 95.25 30.000001" height="40" preserveAspectRatio="xMidYMid meet" version="1.0"><defs><g/><clipPath id="f08d5fd4f9"><path d="M 4.078125 6.667969 L 23.671875 6.667969 L 23.671875 22.636719 L 4.078125 22.636719 Z M 4.078125 6.667969 " clip-rule="nonzero"/></clipPath></defs><g fill="#ffffff" fill-opacity="1"><g transform="translate(27.106789, 17.998295)"><g><path d="M 4.464844 -7.792969 C 4.464844 -7.894531 4.421875 -7.953125 4.304688 -7.953125 L 0.644531 -7.953125 C 0.558594 -7.953125 0.496094 -7.894531 0.496094 -7.792969 L 0.496094 -0.160156 C 0.496094 -0.0585938 0.558594 0 0.644531 0 L 4.304688 0 C 4.421875 0 4.464844 -0.0585938 4.464844 -0.160156 L 4.464844 -1.152344 C 4.464844 -1.261719 4.421875 -1.3125 4.304688 -1.3125 L 1.820312 -1.3125 L 1.820312 -3.320312 L 3.71875 -3.320312 C 3.816406 -3.320312 3.875 -3.378906 3.875 -3.488281 L 3.875 -4.472656 C 3.875 -4.582031 3.816406 -4.640625 3.71875 -4.640625 L 1.820312 -4.640625 L 1.820312 -6.628906 L 4.304688 -6.628906 C 4.421875 -6.628906 4.464844 -6.699219 4.464844 -6.800781 Z M 4.464844 -7.792969 "/></g></g></g><g fill="#ffffff" fill-opacity="1"><g transform="translate(33.924657, 17.998295)"><g><path d="M 1.847656 -1.3125 L 3.816406 -1.3125 C 3.925781 -1.3125 3.976562 -1.253906 3.976562 -1.152344 L 3.976562 -0.160156 C 3.976562 -0.0507812 3.925781 0 3.816406 0 L 0.65625 0 C 0.558594 0 0.496094 -0.0507812 0.496094 -0.160156 L 0.496094 -6.800781 C 0.496094 -6.898438 0.558594 -6.957031 0.65625 -6.957031 L 1.691406 -6.957031 C 1.800781 -6.957031 1.847656 -6.898438 1.847656 -6.800781 Z M 1.847656 -1.3125 "/></g></g></g><g fill="#ffffff" fill-opacity="1"><g transform="translate(40.255592, 17.998295)"><g><path d="M 0.65625 0 C 0.546875 0 0.496094 -0.0585938 0.496094 -0.160156 L 0.496094 -6.800781 C 0.496094 -6.898438 0.546875 -6.957031 0.65625 -6.957031 L 1.691406 -6.957031 C 1.789062 -6.957031 1.847656 -6.898438 1.847656 -6.800781 L 1.847656 -0.160156 C 1.847656 -0.0585938 1.789062 0 1.691406 0 Z M 0.65625 0 "/></g></g></g><g fill="#ffffff" fill-opacity="1"><g transform="translate(44.459919, 17.998295)"><g><path d="M 4.117188 -6.957031 C 4.226562 -6.957031 4.273438 -6.898438 4.273438 -6.800781 L 4.273438 -5.804688 C 4.273438 -5.707031 4.226562 -5.644531 4.117188 -5.644531 L 2.960938 -5.644531 L 2.960938 -0.160156 C 2.960938 -0.0507812 2.914062 0 2.804688 0 L 1.769531 0 C 1.671875 0 1.609375 -0.0507812 1.609375 -0.160156 L 1.609375 -5.644531 L 0.457031 -5.644531 C 0.359375 -5.644531 0.296875 -5.707031 0.296875 -5.804688 L 0.296875 -6.800781 C 0.296875 -6.898438 0.359375 -6.957031 0.457031 -6.957031 Z M 4.117188 -6.957031 "/></g></g></g><g fill="#ffffff" fill-opacity="1"><g transform="translate(50.890228, 17.998295)"><g><path d="M 4.464844 -6.800781 C 4.464844 -6.898438 4.421875 -6.957031 4.304688 -6.957031 L 0.644531 -6.957031 C 0.558594 -6.957031 0.496094 -6.898438 0.496094 -6.800781 L 0.496094 -0.160156 C 0.496094 -0.0585938 0.558594 0 0.644531 0 L 4.304688 0 C 4.421875 0 4.464844 -0.0585938 4.464844 -0.160156 L 4.464844 -1.152344 C 4.464844 -1.261719 4.421875 -1.3125 4.304688 -1.3125 L 1.847656 -1.3125 L 1.847656 -2.785156 L 3.71875 -2.785156 C 3.816406 -2.785156 3.875 -2.84375 3.875 -2.953125 L 3.875 -3.9375 C 3.875 -4.046875 3.816406 -4.105469 3.71875 -4.105469 L 1.847656 -4.105469 L 1.847656 -5.636719 L 4.304688 -5.636719 C 4.421875 -5.636719 4.464844 -5.707031 4.464844 -5.804688 Z M 4.464844 -6.800781 "/></g></g></g><g fill="#ffffff" fill-opacity="1"><g transform="translate(62.051545, 17.998295)"><g><path d="M 4.464844 -7.792969 C 4.464844 -7.894531 4.421875 -7.953125 4.304688 -7.953125 L 0.644531 -7.953125 C 0.558594 -7.953125 0.496094 -7.894531 0.496094 -7.792969 L 0.496094 -0.160156 C 0.496094 -0.0585938 0.558594 0 0.644531 0 L 4.304688 0 C 4.421875 0 4.464844 -0.0585938 4.464844 -0.160156 L 4.464844 -1.152344 C 4.464844 -1.261719 4.421875 -1.3125 4.304688 -1.3125 L 1.820312 -1.3125 L 1.820312 -3.320312 L 3.71875 -3.320312 C 3.816406 -3.320312 3.875 -3.378906 3.875 -3.488281 L 3.875 -4.472656 C 3.875 -4.582031 3.816406 -4.640625 3.71875 -4.640625 L 1.820312 -4.640625 L 1.820312 -6.628906 L 4.304688 -6.628906 C 4.421875 -6.628906 4.464844 -6.699219 4.464844 -6.800781 Z M 4.464844 -7.792969 "/></g></g></g><g fill="#ffffff" fill-opacity="1"><g transform="translate(68.869413, 17.998295)"><g><path d="M 0.496094 -0.160156 C 0.496094 -0.0507812 0.546875 0 0.65625 0 L 3.042969 0 C 3.976562 0 4.472656 -0.496094 4.472656 -1.429688 L 4.472656 -5.515625 C 4.472656 -6.453125 3.976562 -6.957031 3.042969 -6.957031 L 0.65625 -6.957031 C 0.546875 -6.957031 0.496094 -6.898438 0.496094 -6.800781 Z M 1.847656 -1.3125 L 1.847656 -5.644531 L 2.761719 -5.644531 C 3.023438 -5.644531 3.160156 -5.507812 3.160156 -5.238281 L 3.160156 -1.710938 C 3.160156 -1.441406 3.023438 -1.3125 2.761719 -1.3125 Z M 1.847656 -1.3125 "/></g></g></g><g fill="#ffffff" fill-opacity="1"><g transform="translate(75.697218, 17.998295)"><g><path d="M 0.496094 -1.429688 C 0.496094 -0.496094 0.992188 0 1.929688 0 L 3.042969 0 C 3.964844 0 4.472656 -0.496094 4.472656 -1.429688 L 4.472656 -3.699219 C 4.472656 -3.808594 4.414062 -3.855469 4.3125 -3.855469 L 2.703125 -3.855469 C 2.59375 -3.855469 2.542969 -3.808594 2.542969 -3.699219 L 2.542969 -2.703125 C 2.542969 -2.605469 2.59375 -2.542969 2.703125 -2.542969 L 3.222656 -2.542969 L 3.222656 -1.679688 C 3.222656 -1.410156 3.082031 -1.28125 2.824219 -1.28125 L 2.1875 -1.28125 C 1.929688 -1.28125 1.789062 -1.410156 1.789062 -1.679688 L 1.789062 -5.277344 C 1.789062 -5.535156 1.917969 -5.675781 2.1875 -5.675781 L 2.824219 -5.675781 C 3.082031 -5.675781 3.222656 -5.535156 3.222656 -5.277344 L 3.222656 -4.792969 C 3.222656 -4.691406 3.269531 -4.632812 3.378906 -4.632812 L 4.3125 -4.632812 C 4.414062 -4.632812 4.472656 -4.691406 4.472656 -4.792969 L 4.472656 -5.527344 C 4.472656 -6.460938 3.964844 -6.957031 3.042969 -6.957031 L 1.929688 -6.957031 C 0.992188 -6.957031 0.496094 -6.460938 0.496094 -5.527344 Z M 0.496094 -1.429688 "/></g></g></g><g fill="#ffffff" fill-opacity="1"><g transform="translate(82.525023, 17.998295)"><g><path d="M 4.464844 -6.800781 C 4.464844 -6.898438 4.421875 -6.957031 4.304688 -6.957031 L 0.644531 -6.957031 C 0.558594 -6.957031 0.496094 -6.898438 0.496094 -6.800781 L 0.496094 -0.160156 C 0.496094 -0.0585938 0.558594 0 0.644531 0 L 4.304688 0 C 4.421875 0 4.464844 -0.0585938 4.464844 -0.160156 L 4.464844 -1.152344 C 4.464844 -1.261719 4.421875 -1.3125 4.304688 -1.3125 L 1.847656 -1.3125 L 1.847656 -2.785156 L 3.71875 -2.785156 C 3.816406 -2.785156 3.875 -2.84375 3.875 -2.953125 L 3.875 -3.9375 C 3.875 -4.046875 3.816406 -4.105469 3.71875 -4.105469 L 1.847656 -4.105469 L 1.847656 -5.636719 L 4.304688 -5.636719 C 4.421875 -5.636719 4.464844 -5.707031 4.464844 -5.804688 Z M 4.464844 -6.800781 "/></g></g></g><g clip-path="url(#f08d5fd4f9)"><path fill="#ffffff" d="M 8.617188 22.636719 L 17.871094 22.636719 L 20.253906 18.359375 L 11.21875 18.359375 L 10.40625 16.9375 L 23.671875 16.9375 L 21.011719 12.425781 L 12.226562 12.425781 L 11.457031 11.023438 L 20.261719 11.035156 L 17.863281 6.667969 L 8.800781 6.667969 L 6.390625 10.800781 L 7.355469 12.425781 L 5.5 12.425781 L 4.078125 14.6875 Z M 11.640625 12.425781 L 7.953125 12.425781 L 6.984375 10.800781 L 9.089844 7.191406 L 17.5625 7.191406 L 19.386719 10.515625 L 10.582031 10.503906 Z M 22.769531 16.425781 L 5.636719 16.425781 L 4.683594 14.679688 L 5.78125 12.9375 L 20.71875 12.9375 Z M 5.933594 16.9375 L 9.8125 16.9375 L 10.925781 18.871094 L 19.375 18.871094 L 17.574219 22.128906 L 8.917969 22.128906 Z M 5.933594 16.9375 " fill-opacity="1" fill-rule="nonzero"/></g></svg>